<svg xmlns="http://www.w3.org/2000/svg" width="329" height="240.256" viewBox="0 0 329 240.256">
  <g id="Group_200" data-name="Group 200" transform="translate(-844 -146)">
    <path id="Path_124" data-name="Path 124" d="M2528,21318.25v240.006" transform="translate(-1481 -21172)" fill="none" stroke="#fdd3c0" stroke-width="1"/>
    <path id="Path_125" data-name="Path 125" d="M2528,21318.248v164" transform="translate(-1423 -21120.25)" fill="none" stroke="#fdd3c0" stroke-width="1"/>
    <path id="Path_126" data-name="Path 126" d="M2528,21318.25V21472" transform="translate(-1365 -21172)" fill="none" stroke="#fdd3c0" stroke-width="1"/>
    <path id="Path_129" data-name="Path 129" d="M2528,21318.25V21472" transform="translate(-1549 -21120)" fill="none" stroke="#fdd3c0" stroke-width="1"/>
    <path id="Path_131" data-name="Path 131" d="M2528,21318.25V21472" transform="translate(-1617 -21163)" fill="none" stroke="#fdd3c0" stroke-width="1"/>
    <path id="Path_133" data-name="Path 133" d="M2528,21318.25v220.7" transform="translate(-1675 -21163)" fill="none" stroke="#fdd3c0" stroke-width="1"/>
    <rect id="Rectangle_782" data-name="Rectangle 782" width="19" height="164" transform="translate(1038 198)" fill="#fdd3c0"/>
    <rect id="Rectangle_783" data-name="Rectangle 783" width="19" height="102" transform="translate(1096 198)" fill="#fdd3c0"/>
    <path id="Path_127" data-name="Path 127" d="M0,0H19V68.253H0Z" transform="translate(1154 146)" fill="#fdd3c0"/>
    <path id="Path_128" data-name="Path 128" d="M0,0H19V68.253H0Z" transform="translate(970 223)" fill="#fdd3c0"/>
    <path id="Path_130" data-name="Path 130" d="M0,0H19V93.189H0Z" transform="translate(902 168)" fill="#fdd3c0"/>
    <path id="Path_132" data-name="Path 132" d="M0,0H19V54.877H0Z" transform="translate(844 220.313)" fill="#fdd3c0"/>
  </g>
</svg>
