<svg xmlns="http://www.w3.org/2000/svg" xmlns:xlink="http://www.w3.org/1999/xlink" width="72.095" height="45.974" viewBox="0 0 72.095 45.974">
  <defs>
    <linearGradient id="linear-gradient" x2="1.192" y2="1.312" gradientUnits="objectBoundingBox">
      <stop offset="0" stop-color="#f76d2f"/>
      <stop offset="1" stop-color="#f7c92f"/>
    </linearGradient>
    <linearGradient id="linear-gradient-2" x1="-0.2" y1="-0.13" x2="1" y2="1" xlink:href="#linear-gradient"/>
    <linearGradient id="linear-gradient-3" x1="0" y1="0" x2="4.567" y2="1.232" xlink:href="#linear-gradient"/>
    <linearGradient id="linear-gradient-4" x1="-0.118" y1="0.855" x2="1.329" y2="0.066" xlink:href="#linear-gradient"/>
    <linearGradient id="linear-gradient-5" x1="-11.194" y1="-0.398" x2="-6.995" y2="0.17" xlink:href="#linear-gradient"/>
    <linearGradient id="linear-gradient-6" x1="-0.57" y1="0.084" x2="1.544" y2="1.245" xlink:href="#linear-gradient"/>
    <linearGradient id="linear-gradient-7" x1="-0.046" y1="0.843" x2="1.157" y2="0.109" xlink:href="#linear-gradient"/>
    <linearGradient id="linear-gradient-8" x1="0.062" y1="0" x2="0.818" y2="1.206" xlink:href="#linear-gradient"/>
  </defs>
  <g id="Logo-3" transform="translate(-92.65 -437.652)">
    <g id="Group_30" data-name="Group 30" transform="translate(92.65 437.652)">
      <g id="Group_22" data-name="Group 22" transform="translate(0 0)">
        <rect id="Rectangle_13" data-name="Rectangle 13" width="3.973" height="19.125" transform="translate(48.415 12.526)" fill="url(#linear-gradient)"/>
        <rect id="Rectangle_543" data-name="Rectangle 543" width="2.499" height="5.116" transform="translate(49.153 3.678)" fill="url(#linear-gradient-2)"/>
        <rect id="Rectangle_14" data-name="Rectangle 14" width="4.174" height="31.652" transform="translate(0 0)" fill="url(#linear-gradient-3)"/>
        <g id="Group_20" data-name="Group 20" transform="translate(6.864 12.986)">
          <path id="Path_29" data-name="Path 29" d="M9.3,9.293m-9.3,0A9.3,9.3,0,1,0,9.3,0,9.294,9.294,0,0,0,0,9.293Zm9.3,0-4.994,0A4.994,4.994,0,1,1,9.3,14.307,5,5,0,0,1,4.3,9.293Z" transform="translate(18.586) rotate(90)" fill="url(#linear-gradient-4)"/>
          <rect id="Rectangle_15" data-name="Rectangle 15" width="3.973" height="18.596" rx="1.987" transform="translate(35.241 7.698)" fill="url(#linear-gradient-5)"/>
          <path id="Path_24" data-name="Path 24" d="M0,0H3.973V24.116H0Z" transform="translate(35.237 8.872)" fill="url(#linear-gradient-6)"/>
          <path id="Path_15" data-name="Path 15" d="M9.3,9.293m-9.3,0A9.3,9.3,0,1,0,9.3,0,9.294,9.294,0,0,0,0,9.293Zm9.3,0-4.994,0A4.994,4.994,0,1,1,9.3,14.307,5,5,0,0,1,4.3,9.293Z" transform="translate(39.23) rotate(90)" fill="url(#linear-gradient-7)"/>
        </g>
        <path id="Subtraction_1" data-name="Subtraction 1" d="M9.293,18.592A9.3,9.3,0,0,1,2.722,2.723a9.295,9.295,0,0,1,11.249-1.46A9.349,9.349,0,0,1,17.3,4.58L13.138,6.089a4.995,4.995,0,1,0-.262,6.7l4.037,1.828A9.306,9.306,0,0,1,9.293,18.592Z" transform="translate(54.792 13.198)" fill="url(#linear-gradient-8)"/>
      </g>
    </g>
    <path id="Path_194" data-name="Path 194" d="M2.684,0V-6.666H.132V-7.832H6.677v1.166H4.114V0Zm7-5.687a1.545,1.545,0,0,1,.55.088l-.011,1.254a1.912,1.912,0,0,0-.726-.143,1.373,1.373,0,0,0-1.073.407A1.545,1.545,0,0,0,8.052-3V0H6.688V-3.982A12.594,12.594,0,0,0,6.6-5.555H7.887L8-4.576a1.651,1.651,0,0,1,.66-.825A1.869,1.869,0,0,1,9.68-5.687Zm6.523.132V0H14.85V-.891a1.784,1.784,0,0,1-.726.721,2.211,2.211,0,0,1-1.078.259,2.37,2.37,0,0,1-1.287-.352,2.325,2.325,0,0,1-.869-1,3.478,3.478,0,0,1-.308-1.507A3.535,3.535,0,0,1,10.9-4.3a2.454,2.454,0,0,1,.875-1.034A2.272,2.272,0,0,1,13.046-5.7a2.211,2.211,0,0,1,1.078.258,1.784,1.784,0,0,1,.726.721v-.836ZM13.42-.99a1.269,1.269,0,0,0,1.056-.473,2.1,2.1,0,0,0,.374-1.331,2.138,2.138,0,0,0-.374-1.353,1.281,1.281,0,0,0-1.067-.473,1.267,1.267,0,0,0-1.062.49,2.168,2.168,0,0,0-.379,1.358,2.03,2.03,0,0,0,.379,1.32A1.31,1.31,0,0,0,13.42-.99ZM23.012-8.1V0H21.659V-.891a1.784,1.784,0,0,1-.726.721,2.211,2.211,0,0,1-1.078.259,2.3,2.3,0,0,1-1.276-.363A2.417,2.417,0,0,1,17.7-1.3a3.535,3.535,0,0,1-.313-1.523A3.478,3.478,0,0,1,17.7-4.334a2.361,2.361,0,0,1,.869-1.006A2.343,2.343,0,0,1,19.855-5.7a2.234,2.234,0,0,1,1.062.247,1.741,1.741,0,0,1,.721.7V-8.1ZM20.218-.99a1.284,1.284,0,0,0,1.061-.473,2.1,2.1,0,0,0,.38-1.342,2.118,2.118,0,0,0-.374-1.342,1.269,1.269,0,0,0-1.056-.473,1.3,1.3,0,0,0-1.073.467,2.053,2.053,0,0,0-.379,1.326,2.144,2.144,0,0,0,.379,1.353A1.272,1.272,0,0,0,20.218-.99ZM29.37-2.706H25.542a2.006,2.006,0,0,0,.445,1.315,1.569,1.569,0,0,0,1.194.424,2.741,2.741,0,0,0,1.694-.594l.4.946A3.1,3.1,0,0,1,28.3-.1a3.682,3.682,0,0,1-1.172.193,2.922,2.922,0,0,1-2.145-.77A2.831,2.831,0,0,1,24.2-2.794,3.236,3.236,0,0,1,24.541-4.3,2.517,2.517,0,0,1,25.5-5.329,2.668,2.668,0,0,1,26.9-5.7a2.307,2.307,0,0,1,1.809.742,2.947,2.947,0,0,1,.665,2.041Zm-2.442-2a1.259,1.259,0,0,0-.9.325,1.589,1.589,0,0,0-.445.941h2.585a1.539,1.539,0,0,0-.379-.946A1.155,1.155,0,0,0,26.928-4.708Zm5.643,4.8a3.763,3.763,0,0,1-2.4-.7l.385-.968a3.33,3.33,0,0,0,2.035.66,1.471,1.471,0,0,0,.764-.165.515.515,0,0,0,.27-.462.486.486,0,0,0-.187-.4,1.726,1.726,0,0,0-.638-.258l-.924-.209Q30.36-2.75,30.36-3.971a1.478,1.478,0,0,1,.286-.9,1.878,1.878,0,0,1,.8-.611,3.042,3.042,0,0,1,1.2-.22,3.627,3.627,0,0,1,1.144.181,3,3,0,0,1,.968.523l-.407.935a2.864,2.864,0,0,0-1.716-.616A1.32,1.32,0,0,0,31.9-4.5a.552.552,0,0,0-.264.484.491.491,0,0,0,.16.385,1.331,1.331,0,0,0,.545.242l.946.209a2.388,2.388,0,0,1,1.2.578,1.4,1.4,0,0,1,.379,1.018,1.435,1.435,0,0,1-.616,1.221A2.8,2.8,0,0,1,32.571.088Z" transform="translate(93.025 481.701)" fill="#3f4045"/>
  </g>
</svg>
