<svg xmlns="http://www.w3.org/2000/svg" width="101.031" height="49.152" viewBox="0 0 101.031 49.152">
  <g id="Group_195" data-name="Group 195" transform="translate(-946.535 -1194.5)">
    <path id="Path_117" data-name="Path 117" d="M1764.035,19205h98.031" transform="translate(-816 -18009)" fill="none" stroke="#fff" stroke-linecap="round" stroke-width="3"/>
    <path id="Path_118" data-name="Path 118" d="M1764.035,19205h98.031" transform="translate(-816 -17992)" fill="none" stroke="#fff" stroke-linecap="round" stroke-width="3"/>
    <path id="Path_119" data-name="Path 119" d="M1764.035,19205h29.052" transform="translate(-816 -17975)" fill="none" stroke="#fff" stroke-linecap="round" stroke-width="3"/>
    <g id="envelopes" transform="translate(1018 1161)">
      <g id="Group_104" data-name="Group 104" transform="translate(1.428 61)">
        <g id="Group_103" data-name="Group 103" transform="translate(0 0)">
          <path id="Path_106" data-name="Path 106" d="M50.22,61H26.791a2.469,2.469,0,0,0-1.07.25L38.45,73.98,41.3,71.238h0l9.987-9.987A2.469,2.469,0,0,0,50.22,61Z" transform="translate(-25.721 -61)" fill="#fff"/>
        </g>
      </g>
      <g id="Group_106" data-name="Group 106" transform="translate(18.777 62.428)">
        <g id="Group_105" data-name="Group 105" transform="translate(0 0)">
          <path id="Path_107" data-name="Path 107" d="M347.611,86.728l-9.4,9.4,9.4,9.4a2.469,2.469,0,0,0,.25-1.07V87.8A2.47,2.47,0,0,0,347.611,86.728Z" transform="translate(-338.213 -86.728)" fill="#fff"/>
        </g>
      </g>
      <g id="Group_108" data-name="Group 108" transform="translate(0 62.428)">
        <g id="Group_107" data-name="Group 107" transform="translate(0 0)">
          <path id="Path_108" data-name="Path 108" d="M.25,86.721A2.469,2.469,0,0,0,0,87.791v16.656a2.47,2.47,0,0,0,.25,1.07l9.4-9.4Z" transform="translate(0 -86.721)" fill="#fff"/>
        </g>
      </g>
      <g id="Group_110" data-name="Group 110" transform="translate(1.428 73.004)">
        <g id="Group_109" data-name="Group 109" transform="translate(0 0)">
          <path id="Path_109" data-name="Path 109" d="M41.886,277.211l-2.853,2.742a.832.832,0,0,1-1.178,0l-2.742-2.742-9.4,9.4a2.47,2.47,0,0,0,1.071.251H50.214a2.469,2.469,0,0,0,1.07-.25Z" transform="translate(-25.714 -277.211)" fill="#fff"/>
        </g>
      </g>
    </g>
  </g>
</svg>
