<svg xmlns="http://www.w3.org/2000/svg" width="96.172" height="72.934" viewBox="0 0 96.172 72.934">
  <g id="Group_194" data-name="Group 194" transform="translate(-744.912 -1185.727)">
    <g id="Union_2" data-name="Union 2" transform="translate(744.914 1185.727)" fill="#fff">
      <path d="M 86.02880096435547 69.93600463867188 L 74.98500823974609 60.55193328857422 L 74.56495666503906 60.19499969482422 L 74.01372528076172 60.19499969482422 L 9.998101234436035 60.19499969482422 C 5.311247825622559 60.19499969482422 1.498207688331604 56.3819580078125 1.498207688331604 51.69510650634766 L 1.498207688331604 9.999905586242676 C 1.498207688331604 5.313038349151611 5.311247825622559 1.499998569488525 9.998101234436035 1.499998569488525 L 86.17050170898438 1.499998569488525 C 90.85736846923828 1.499998569488525 94.67041015625 5.313038349151611 94.67041015625 9.999905586242676 L 94.67041015625 51.69510650634766 C 94.67041015625 53.66474533081055 94.01683807373047 55.51293182373047 92.78035736083984 57.03987884521484 C 91.57819366455078 58.5244255065918 89.89682006835938 59.57131958007812 88.04599761962891 59.98770523071289 L 86.98911285400391 60.22547912597656 L 86.88249969482422 61.30350494384766 L 86.02880096435547 69.93600463867188 Z" stroke="none"/>
      <path d="M 84.81790161132812 66.93869781494141 L 85.38979339599609 61.1558837890625 L 85.60301208496094 58.99982070922852 L 87.71675872802734 58.52428436279297 C 89.23970031738281 58.18166732788086 90.62397766113281 57.31925201416016 91.6146240234375 56.09589767456055 C 92.63242340087891 54.83900451660156 93.17041015625 53.31723785400391 93.17041015625 51.69509887695312 L 93.17041015625 9.999897956848145 C 93.17041015625 6.140144348144531 90.0302734375 3.000005722045898 86.17050170898438 3.000005722045898 L 9.998101234436035 3.000005722045898 C 6.138347148895264 3.000005722045898 2.99820876121521 6.140144348144531 2.99820876121521 9.999897956848145 L 2.99820876121521 51.69509887695312 C 2.99820876121521 55.55486679077148 6.138347148895264 58.69500732421875 9.998101234436035 58.69500732421875 L 74.01373291015625 58.69500732421875 L 75.11618041992188 58.69500732421875 L 75.956298828125 59.40886688232422 L 84.81790161132812 66.93869781494141 M 87.23970031738281 72.93329620361328 L 74.01373291015625 61.69500732421875 L 9.998101234436035 61.69500732421875 C 4.475700855255127 61.69500732421875 -0.001791312824934721 57.21840667724609 -0.001791312824934721 51.69509887695312 L -0.001791312824934721 9.999897956848145 C -0.001791312824934721 4.477498054504395 4.475700855255127 5.762657565355767e-06 9.998101234436035 5.762657565355767e-06 L 86.17050170898438 5.762657565355767e-06 C 91.69290161132812 5.762657565355767e-06 96.17041015625 4.477498054504395 96.17041015625 9.999897956848145 L 96.17041015625 51.69509887695312 C 96.17041015625 56.46089935302734 92.83724212646484 60.44729995727539 88.37522125244141 61.45112991333008 L 87.23970031738281 72.93329620361328 Z" stroke="none" fill="#fff"/>
    </g>
    <path id="Path_195" data-name="Path 195" d="M1.562,0V-15.664h10.56v2.706H4.95v3.63h6.732V-6.6H4.95V0ZM25.014,0l-1.5-3.476H16.192L14.7,0H11.242l7.194-15.664h2.772L28.4,0ZM17.336-6.094H22.4l-2.53-5.874Zm22.9,5.478a7.778,7.778,0,0,0,1.2,1.562q.715.726,1.639,1.5L40.766,4.2A11.94,11.94,0,0,1,37.048.176,5.284,5.284,0,0,1,36.5.2a8.094,8.094,0,0,1-4.059-.979,6.6,6.6,0,0,1-2.662-2.8,9.244,9.244,0,0,1-.935-4.268,9.109,9.109,0,0,1,.935-4.246,6.633,6.633,0,0,1,2.662-2.783,8.094,8.094,0,0,1,4.059-.979,8.032,8.032,0,0,1,4.048.979,6.583,6.583,0,0,1,2.64,2.783,9.2,9.2,0,0,1,.924,4.246A9.207,9.207,0,0,1,43.1-3.41,6.5,6.5,0,0,1,40.238-.616ZM32.3-7.854a6.227,6.227,0,0,0,1.111,3.993A3.753,3.753,0,0,0,36.5-2.486a3.74,3.74,0,0,0,3.091-1.386A6.235,6.235,0,0,0,40.7-7.854a6.14,6.14,0,0,0-1.111-3.96A3.766,3.766,0,0,0,36.5-13.178a3.766,3.766,0,0,0-3.091,1.364A6.14,6.14,0,0,0,32.3-7.854Z" transform="translate(770 1224)" fill="#f76d2f"/>
  </g>
</svg>
