<svg xmlns="http://www.w3.org/2000/svg" width="96.172" height="72.933" viewBox="0 0 96.172 72.933">
  <g id="Group_132" data-name="Group 132" transform="translate(-744.912 -1185.727)">
    <g id="Union_2" data-name="Union 2" transform="translate(744.914 1185.727)" fill="none">
      <path d="M74.014,61.695H10a10,10,0,0,1-10-10V10A10,10,0,0,1,10,0H86.171a10,10,0,0,1,10,10V51.7a10,10,0,0,1-7.8,9.756L87.24,72.933Z" stroke="none"/>
      <path d="M 84.81790161132812 66.93869781494141 L 85.38979339599609 61.1558837890625 L 85.60301208496094 58.99982070922852 L 87.71675872802734 58.52428436279297 C 89.23970031738281 58.18166732788086 90.62397766113281 57.31925201416016 91.6146240234375 56.09589767456055 C 92.63242340087891 54.83900451660156 93.17041015625 53.31723785400391 93.17041015625 51.69509887695312 L 93.17041015625 9.999897956848145 C 93.17041015625 6.140144348144531 90.0302734375 3.000005722045898 86.17050170898438 3.000005722045898 L 9.998101234436035 3.000005722045898 C 6.138347148895264 3.000005722045898 2.99820876121521 6.140144348144531 2.99820876121521 9.999897956848145 L 2.99820876121521 51.69509887695312 C 2.99820876121521 55.55486679077148 6.138347148895264 58.69500732421875 9.998101234436035 58.69500732421875 L 74.01373291015625 58.69500732421875 L 75.11618041992188 58.69500732421875 L 75.956298828125 59.40886688232422 L 84.81790161132812 66.93869781494141 M 87.23970031738281 72.93329620361328 L 74.01373291015625 61.69500732421875 L 9.998101234436035 61.69500732421875 C 4.475700855255127 61.69500732421875 -0.001791312824934721 57.21840667724609 -0.001791312824934721 51.69509887695312 L -0.001791312824934721 9.999897956848145 C -0.001791312824934721 4.477498054504395 4.475700855255127 5.762657565355767e-06 9.998101234436035 5.762657565355767e-06 L 86.17050170898438 5.762657565355767e-06 C 91.69290161132812 5.762657565355767e-06 96.17041015625 4.477498054504395 96.17041015625 9.999897956848145 L 96.17041015625 51.69509887695312 C 96.17041015625 56.46089935302734 92.83724212646484 60.44729995727539 88.37522125244141 61.45112991333008 L 87.23970031738281 72.93329620361328 Z" stroke="none" fill="#f76d2f"/>
    </g>
    <text id="FAQ" transform="translate(770 1224)" fill="#f76d2f" font-size="22" font-family="Muli-ExtraBold, Muli" font-weight="800"><tspan x="0" y="0">FAQ</tspan></text>
  </g>
</svg>
