<svg xmlns="http://www.w3.org/2000/svg" width="92" height="55" viewBox="0 0 92 55">
  <g id="Group_197" data-name="Group 197" transform="translate(-524 -1196)">
    <g id="Group_129" data-name="Group 129" transform="translate(-430 181)">
      <g id="Ellipse_38" data-name="Ellipse 38" transform="translate(972 1021)" fill="none" stroke="#fff" stroke-width="3">
        <ellipse cx="10" cy="10.5" rx="10" ry="10.5" stroke="none"/>
        <ellipse cx="10" cy="10.5" rx="8.5" ry="9" fill="none"/>
      </g>
      <g id="Subtraction_5" data-name="Subtraction 5" transform="translate(967 1042)" fill="none">
        <path d="M29,19H0V14.5A14.5,14.5,0,0,1,24.753,4.247,14.405,14.405,0,0,1,29,14.5V19Z" stroke="none"/>
        <path d="M 25.99979972839355 15.99990081787109 L 25.99979972839355 14.49990081787109 C 25.99979972839355 11.42811012268066 24.80361938476562 8.540210723876953 22.6316089630127 6.368190288543701 C 20.4595890045166 4.19618034362793 17.57168960571289 3.000000476837158 14.49989986419678 3.000000476837158 C 11.42811012268066 3.000000476837158 8.540209770202637 4.19618034362793 6.368189811706543 6.368190288543701 C 4.196179866790771 8.540210723876953 2.999999761581421 11.42811012268066 2.999999761581421 14.49990081787109 L 2.999999761581421 15.99990081787109 L 25.99979972839355 15.99990081787109 M 28.99979972839355 18.99990081787109 L 28.99880027770996 18.99990081787109 L -1.358032193365943e-07 18.99990081787109 L -1.358032193365943e-07 14.49990081787109 C -1.358032193365943e-07 10.62677001953125 1.50823986530304 6.985510349273682 4.246870040893555 4.246870517730713 C 6.985509872436523 1.508240461349487 10.62677001953125 4.089355343239731e-07 14.49989986419678 4.089355343239731e-07 C 18.3730297088623 4.089355343239731e-07 22.01428985595703 1.508240461349487 24.7529296875 4.246870517730713 C 27.4915599822998 6.985510349273682 28.99979972839355 10.62677001953125 28.99979972839355 14.49990081787109 L 28.99979972839355 18.99889945983887 L 28.99979972839355 18.99990081787109 Z" stroke="none" fill="#fff"/>
      </g>
    </g>
    <g id="Group_130" data-name="Group 130" transform="translate(-394 181)">
      <g id="Ellipse_38-2" data-name="Ellipse 38" transform="translate(972 1021)" fill="none" stroke="#fff" stroke-width="3">
        <ellipse cx="10" cy="10.5" rx="10" ry="10.5" stroke="none"/>
        <ellipse cx="10" cy="10.5" rx="8.5" ry="9" fill="none"/>
      </g>
      <g id="Subtraction_5-2" data-name="Subtraction 5" transform="translate(967 1042)" fill="none">
        <path d="M29,19H0V14.5A14.5,14.5,0,0,1,24.753,4.247,14.405,14.405,0,0,1,29,14.5V19Z" stroke="none"/>
        <path d="M 25.99979972839355 15.99990081787109 L 25.99979972839355 14.49990081787109 C 25.99979972839355 11.42811012268066 24.80361938476562 8.540210723876953 22.6316089630127 6.368190288543701 C 20.4595890045166 4.19618034362793 17.57168960571289 3.000000476837158 14.49989986419678 3.000000476837158 C 11.42811012268066 3.000000476837158 8.540209770202637 4.19618034362793 6.368189811706543 6.368190288543701 C 4.196179866790771 8.540210723876953 2.999999761581421 11.42811012268066 2.999999761581421 14.49990081787109 L 2.999999761581421 15.99990081787109 L 25.99979972839355 15.99990081787109 M 28.99979972839355 18.99990081787109 L 28.99880027770996 18.99990081787109 L -1.358032193365943e-07 18.99990081787109 L -1.358032193365943e-07 14.49990081787109 C -1.358032193365943e-07 10.62677001953125 1.50823986530304 6.985510349273682 4.246870040893555 4.246870517730713 C 6.985509872436523 1.508240461349487 10.62677001953125 4.089355343239731e-07 14.49989986419678 4.089355343239731e-07 C 18.3730297088623 4.089355343239731e-07 22.01428985595703 1.508240461349487 24.7529296875 4.246870517730713 C 27.4915599822998 6.985510349273682 28.99979972839355 10.62677001953125 28.99979972839355 14.49990081787109 L 28.99979972839355 18.99889945983887 L 28.99979972839355 18.99990081787109 Z" stroke="none" fill="#fff"/>
      </g>
    </g>
    <g id="Group_126" data-name="Group 126" transform="translate(-443 182)">
      <ellipse id="Ellipse_38-3" data-name="Ellipse 38" cx="10" cy="10.5" rx="10" ry="10.5" transform="translate(972 1021)" fill="#fff"/>
      <path id="Subtraction_5-3" data-name="Subtraction 5" d="M29,19H0V14.5A14.5,14.5,0,0,1,24.753,4.247,14.405,14.405,0,0,1,29,14.5V19Z" transform="translate(967 1042)" fill="#fff"/>
      <rect id="Rectangle_764" data-name="Rectangle 764" width="23" height="12" transform="translate(970 1057)" fill="none"/>
    </g>
    <g id="Group_127" data-name="Group 127" transform="translate(-443 182)">
      <circle id="Ellipse_40" data-name="Ellipse 40" cx="10.5" cy="10.5" r="10.5" transform="translate(1034 1021)" fill="#fff"/>
      <path id="Subtraction_7" data-name="Subtraction 7" d="M29,19H0V14.5A14.5,14.5,0,0,1,24.753,4.247,14.405,14.405,0,0,1,29,14.5V19Z" transform="translate(1030 1042)" fill="#fff"/>
      <rect id="Rectangle_765" data-name="Rectangle 765" width="23" height="12" transform="translate(1033 1057)" fill="none"/>
    </g>
    <g id="Group_128" data-name="Group 128" transform="translate(-443 182)">
      <circle id="Ellipse_39" data-name="Ellipse 39" cx="12.5" cy="12.5" r="12.5" transform="translate(1001 1014)" fill="#fff"/>
      <path id="Subtraction_6" data-name="Subtraction 6" d="M34,22H0V17A17,17,0,0,1,29.021,4.979,16.889,16.889,0,0,1,34,17v5Z" transform="translate(996 1039)" fill="#fff"/>
      <path id="Path_191" data-name="Path 191" d="M0,0H28V12H0Z" transform="translate(999 1057)" fill="none"/>
    </g>
  </g>
</svg>
