<svg xmlns="http://www.w3.org/2000/svg" width="92" height="55" viewBox="0 0 92 55">
  <g id="Group_180" data-name="Group 180" transform="translate(-524 -1196)">
    <g id="Group_129" data-name="Group 129" transform="translate(-430 181)">
      <g id="Ellipse_38" data-name="Ellipse 38" transform="translate(972 1021)" fill="none" stroke="#f76d2f" stroke-width="3">
        <ellipse cx="10" cy="10.5" rx="10" ry="10.5" stroke="none"/>
        <ellipse cx="10" cy="10.5" rx="8.5" ry="9" fill="none"/>
      </g>
      <g id="Subtraction_5" data-name="Subtraction 5" transform="translate(967 1042)" fill="none">
        <path d="M29,19H0V14.5A14.5,14.5,0,0,1,24.753,4.247,14.405,14.405,0,0,1,29,14.5V19Z" stroke="none"/>
        <path d="M 25.99979972839355 15.99990081787109 L 25.99979972839355 14.49990081787109 C 25.99979972839355 11.42811012268066 24.80361938476562 8.540210723876953 22.6316089630127 6.368190288543701 C 20.4595890045166 4.19618034362793 17.57168960571289 3.000000476837158 14.49989986419678 3.000000476837158 C 11.42811012268066 3.000000476837158 8.540209770202637 4.19618034362793 6.368189811706543 6.368190288543701 C 4.196179866790771 8.540210723876953 2.999999761581421 11.42811012268066 2.999999761581421 14.49990081787109 L 2.999999761581421 15.99990081787109 L 25.99979972839355 15.99990081787109 M 28.99979972839355 18.99990081787109 L 28.99880027770996 18.99990081787109 L -1.358032193365943e-07 18.99990081787109 L -1.358032193365943e-07 14.49990081787109 C -1.358032193365943e-07 10.62677001953125 1.50823986530304 6.985510349273682 4.246870040893555 4.246870517730713 C 6.985509872436523 1.508240461349487 10.62677001953125 4.089355343239731e-07 14.49989986419678 4.089355343239731e-07 C 18.3730297088623 4.089355343239731e-07 22.01428985595703 1.508240461349487 24.7529296875 4.246870517730713 C 27.4915599822998 6.985510349273682 28.99979972839355 10.62677001953125 28.99979972839355 14.49990081787109 L 28.99979972839355 18.99889945983887 L 28.99979972839355 18.99990081787109 Z" stroke="none" fill="#f76d2f"/>
      </g>
      <rect id="Rectangle_764" data-name="Rectangle 764" width="23" height="12" transform="translate(970 1057)" fill="#fff"/>
    </g>
    <g id="Group_130" data-name="Group 130" transform="translate(-394 181)">
      <g id="Ellipse_38-2" data-name="Ellipse 38" transform="translate(972 1021)" fill="none" stroke="#f76d2f" stroke-width="3">
        <ellipse cx="10" cy="10.5" rx="10" ry="10.5" stroke="none"/>
        <ellipse cx="10" cy="10.5" rx="8.5" ry="9" fill="none"/>
      </g>
      <g id="Subtraction_5-2" data-name="Subtraction 5" transform="translate(967 1042)" fill="none">
        <path d="M29,19H0V14.5A14.5,14.5,0,0,1,24.753,4.247,14.405,14.405,0,0,1,29,14.5V19Z" stroke="none"/>
        <path d="M 25.99979972839355 15.99990081787109 L 25.99979972839355 14.49990081787109 C 25.99979972839355 11.42811012268066 24.80361938476562 8.540210723876953 22.6316089630127 6.368190288543701 C 20.4595890045166 4.19618034362793 17.57168960571289 3.000000476837158 14.49989986419678 3.000000476837158 C 11.42811012268066 3.000000476837158 8.540209770202637 4.19618034362793 6.368189811706543 6.368190288543701 C 4.196179866790771 8.540210723876953 2.999999761581421 11.42811012268066 2.999999761581421 14.49990081787109 L 2.999999761581421 15.99990081787109 L 25.99979972839355 15.99990081787109 M 28.99979972839355 18.99990081787109 L 28.99880027770996 18.99990081787109 L -1.358032193365943e-07 18.99990081787109 L -1.358032193365943e-07 14.49990081787109 C -1.358032193365943e-07 10.62677001953125 1.50823986530304 6.985510349273682 4.246870040893555 4.246870517730713 C 6.985509872436523 1.508240461349487 10.62677001953125 4.089355343239731e-07 14.49989986419678 4.089355343239731e-07 C 18.3730297088623 4.089355343239731e-07 22.01428985595703 1.508240461349487 24.7529296875 4.246870517730713 C 27.4915599822998 6.985510349273682 28.99979972839355 10.62677001953125 28.99979972839355 14.49990081787109 L 28.99979972839355 18.99889945983887 L 28.99979972839355 18.99990081787109 Z" stroke="none" fill="#f76d2f"/>
      </g>
      <rect id="Rectangle_764-2" data-name="Rectangle 764" width="23" height="12" transform="translate(970 1057)" fill="#fff"/>
    </g>
    <g id="Group_126" data-name="Group 126" transform="translate(-443 182)">
      <g id="Ellipse_38-3" data-name="Ellipse 38" transform="translate(972 1021)" fill="#fff" stroke="#f76d2f" stroke-width="3">
        <ellipse cx="10" cy="10.5" rx="10" ry="10.5" stroke="none"/>
        <ellipse cx="10" cy="10.5" rx="8.5" ry="9" fill="none"/>
      </g>
      <g id="Subtraction_5-3" data-name="Subtraction 5" transform="translate(967 1042)" fill="#fff">
        <path d="M 27.49979972839355 17.49990081787109 L 1.49999988079071 17.49990081787109 L 1.49999988079071 14.49990081787109 C 1.49999988079071 11.02744007110596 2.852209806442261 7.762860298156738 5.307529926300049 5.307530403137207 C 7.76285982131958 2.852210521697998 11.02744007110596 1.500000357627869 14.49989986419678 1.500000357627869 C 17.97236061096191 1.500000357627869 21.23694038391113 2.852210521697998 23.69227027893066 5.307530403137207 C 26.14759063720703 7.762860298156738 27.49979972839355 11.02744007110596 27.49979972839355 14.49990081787109 L 27.49979972839355 17.49990081787109 Z" stroke="none"/>
        <path d="M 25.99979972839355 15.99990081787109 L 25.99979972839355 14.49990081787109 C 25.99979972839355 11.42811012268066 24.80361938476562 8.540210723876953 22.6316089630127 6.368190288543701 C 20.4595890045166 4.19618034362793 17.57168960571289 3.000000476837158 14.49989986419678 3.000000476837158 C 11.42811012268066 3.000000476837158 8.540209770202637 4.19618034362793 6.368189811706543 6.368190288543701 C 4.196179866790771 8.540210723876953 2.999999761581421 11.42811012268066 2.999999761581421 14.49990081787109 L 2.999999761581421 15.99990081787109 L 25.99979972839355 15.99990081787109 M 28.99979972839355 18.99990081787109 L 28.99880027770996 18.99990081787109 L -1.358032193365943e-07 18.99990081787109 L -1.358032193365943e-07 14.49990081787109 C -1.358032193365943e-07 10.62677001953125 1.50823986530304 6.985510349273682 4.246870040893555 4.246870517730713 C 6.985509872436523 1.508240461349487 10.62677001953125 4.089355343239731e-07 14.49989986419678 4.089355343239731e-07 C 18.3730297088623 4.089355343239731e-07 22.01428985595703 1.508240461349487 24.7529296875 4.246870517730713 C 27.4915599822998 6.985510349273682 28.99979972839355 10.62677001953125 28.99979972839355 14.49990081787109 L 28.99979972839355 18.99889945983887 L 28.99979972839355 18.99990081787109 Z" stroke="none" fill="#f76d2f"/>
      </g>
      <rect id="Rectangle_764-3" data-name="Rectangle 764" width="23" height="12" transform="translate(970 1057)" fill="#fff"/>
    </g>
    <g id="Group_127" data-name="Group 127" transform="translate(-443 182)">
      <g id="Ellipse_40" data-name="Ellipse 40" transform="translate(1034 1021)" fill="#fff" stroke="#f76d2f" stroke-width="3">
        <circle cx="10.5" cy="10.5" r="10.5" stroke="none"/>
        <circle cx="10.5" cy="10.5" r="9" fill="none"/>
      </g>
      <g id="Subtraction_7" data-name="Subtraction 7" transform="translate(1030 1042)" fill="#fff">
        <path d="M 27.49979972839355 17.49990081787109 L 1.49999988079071 17.49990081787109 L 1.49999988079071 14.49990081787109 C 1.49999988079071 11.02744007110596 2.852209806442261 7.762860298156738 5.307529926300049 5.307530403137207 C 7.76285982131958 2.852210521697998 11.02744007110596 1.500000357627869 14.49989986419678 1.500000357627869 C 17.97236061096191 1.500000357627869 21.23694038391113 2.852210521697998 23.69227027893066 5.307530403137207 C 26.14759063720703 7.762860298156738 27.49979972839355 11.02744007110596 27.49979972839355 14.49990081787109 L 27.49979972839355 17.49990081787109 Z" stroke="none"/>
        <path d="M 25.99979972839355 15.99990081787109 L 25.99979972839355 14.49990081787109 C 25.99979972839355 11.42811012268066 24.80361938476562 8.540210723876953 22.6316089630127 6.368190288543701 C 20.4595890045166 4.19618034362793 17.57168960571289 3.000000476837158 14.49989986419678 3.000000476837158 C 11.42811012268066 3.000000476837158 8.540209770202637 4.19618034362793 6.368189811706543 6.368190288543701 C 4.196179866790771 8.540210723876953 2.999999761581421 11.42811012268066 2.999999761581421 14.49990081787109 L 2.999999761581421 15.99990081787109 L 25.99979972839355 15.99990081787109 M 28.99979972839355 18.99990081787109 L 28.99880027770996 18.99990081787109 L -1.358032193365943e-07 18.99990081787109 L -1.358032193365943e-07 14.49990081787109 C -1.358032193365943e-07 10.62677001953125 1.50823986530304 6.985510349273682 4.246870040893555 4.246870517730713 C 6.985509872436523 1.508240461349487 10.62677001953125 4.089355343239731e-07 14.49989986419678 4.089355343239731e-07 C 18.3730297088623 4.089355343239731e-07 22.01428985595703 1.508240461349487 24.7529296875 4.246870517730713 C 27.4915599822998 6.985510349273682 28.99979972839355 10.62677001953125 28.99979972839355 14.49990081787109 L 28.99979972839355 18.99889945983887 L 28.99979972839355 18.99990081787109 Z" stroke="none" fill="#f76d2f"/>
      </g>
      <rect id="Rectangle_765" data-name="Rectangle 765" width="23" height="12" transform="translate(1033 1057)" fill="#fff"/>
    </g>
    <g id="Group_128" data-name="Group 128" transform="translate(-443 182)">
      <g id="Ellipse_39" data-name="Ellipse 39" transform="translate(1001 1014)" fill="#fff" stroke="#f76d2f" stroke-width="3">
        <circle cx="12.5" cy="12.5" r="12.5" stroke="none"/>
        <circle cx="12.5" cy="12.5" r="11" fill="none"/>
      </g>
      <g id="Subtraction_6" data-name="Subtraction 6" transform="translate(996 1039)" fill="#fff">
        <path d="M 32.50020217895508 20.49960136413574 L 1.500001072883606 20.49960136413574 L 1.500001072883606 17.00010108947754 C 1.500001072883606 12.85992050170898 3.112301111221313 8.967520713806152 6.039911270141602 6.039910793304443 C 8.967520713806152 3.112300634384155 12.8599214553833 1.500000715255737 17.00010108947754 1.500000715255737 C 21.14028167724609 1.500000715255737 25.03268051147461 3.112300634384155 27.96029090881348 6.039910793304443 C 30.88790130615234 8.967520713806152 32.50020217895508 12.85992050170898 32.50020217895508 17.00010108947754 L 32.50020217895508 20.49960136413574 Z" stroke="none"/>
        <path d="M 31.00020027160645 18.99960136413574 L 31.00020027160645 17.00010108947754 C 31.00020027160645 13.26058101654053 29.54392051696777 9.744860649108887 26.89963150024414 7.100570678710938 C 24.25534057617188 4.456280708312988 20.73962020874023 3.000000715255737 17.00010108947754 3.000000715255737 C 13.26058101654053 3.000000715255737 9.744860649108887 4.456280708312988 7.100571155548096 7.100570678710938 C 4.456281185150146 9.744860649108887 3.000001192092896 13.26058101654053 3.000001192092896 17.00010108947754 L 3.000001192092896 18.99960136413574 L 31.00020027160645 18.99960136413574 M 34.00020217895508 21.99960136413574 L 1.089477564164554e-06 21.99960136413574 L 1.089477564164554e-06 17.00010108947754 C 1.089477564164554e-06 12.45926094055176 1.768331050872803 8.190170288085938 4.979250907897949 4.979250907897949 C 8.190171241760254 1.768330693244934 12.45926094055176 6.820678777330613e-07 17.00010108947754 6.820678777330613e-07 C 21.54094123840332 6.820678777330613e-07 25.81003189086914 1.768330693244934 29.02095031738281 4.979250907897949 C 32.23187255859375 8.190170288085938 34.00020217895508 12.45926094055176 34.00020217895508 17.00010108947754 L 34.00020217895508 21.99860000610352 L 34.00020217895508 21.99960136413574 Z" stroke="none" fill="#f76d2f"/>
      </g>
      <rect id="Rectangle_766" data-name="Rectangle 766" width="28" height="12" transform="translate(999 1057)" fill="#fff"/>
    </g>
  </g>
</svg>
