<svg xmlns="http://www.w3.org/2000/svg" width="101" height="93" viewBox="0 0 101 93">
  <g id="Group_124" data-name="Group 124" transform="translate(-963 -976)">
    <g id="Group_123" data-name="Group 123">
      <g id="Union_1" data-name="Union 1" transform="translate(963 976)" fill="none">
        <path d="M75.436,26.3H56.174L50.5,36l-5.674-9.7H24.564L18.891,36l-5.674-9.7H13.15a13.15,13.15,0,0,1,0-26.3h74.7a13.15,13.15,0,0,1,0,26.3H86.783L81.109,36Z" stroke="none"/>
        <path d="M 50.49990463256836 32.03897476196289 L 54.44729995727539 25.29085731506348 L 55.0265007019043 24.30069923400879 L 56.17362976074219 24.30069923400879 L 75.43595886230469 24.30069923400879 L 76.58316040039062 24.30069923400879 L 77.16236114501953 25.29095649719238 L 81.10902404785156 32.03876495361328 L 85.05629730224609 25.29085731506348 L 85.635498046875 24.30069923400879 L 86.78263092041016 24.30069923400879 L 87.84989929199219 24.30069923400879 C 90.82798767089844 24.30069923400879 93.62789916992188 23.14082908630371 95.73388671875 21.03474235534668 C 97.83994293212891 18.92858505249023 98.99980163574219 16.12837219238281 98.99980163574219 13.14990043640137 C 98.99980163574219 10.17184257507324 97.83995819091797 7.371914386749268 95.73393249511719 5.265871524810791 C 93.62788391113281 3.159842967987061 90.82795715332031 2 87.84989929199219 2 L 13.14990043640137 2 C 10.17184352874756 2 7.371915340423584 3.159842967987061 5.265872478485107 5.265871524810791 C 3.159843683242798 7.371914386749268 2.000000715255737 10.17184257507324 2.000000715255737 13.14990043640137 C 2.000000715255737 16.12837219238281 3.159857988357544 18.92858505249023 5.265914916992188 21.03474235534668 C 7.371901035308838 23.14082908630371 10.17181491851807 24.30069923400879 13.14990043640137 24.30069923400879 L 13.21728610992432 24.30069923400879 L 14.36441516876221 24.30069923400879 L 14.9436149597168 25.29085731506348 L 18.89087677001953 32.03876113891602 L 22.83754348754883 25.29095649719238 L 23.41674423217773 24.30069923400879 L 24.56394386291504 24.30069923400879 L 44.82618713378906 24.30069923400879 L 45.97331619262695 24.30069923400879 L 46.55251693725586 25.29085731506348 L 50.49990463256836 32.03897476196289 M 81.10890197753906 36 L 75.43595886230469 26.30069923400879 L 56.17362976074219 26.30069923400879 L 50.49990081787109 36 L 44.82618713378906 26.30069923400879 L 24.56394386291504 26.30069923400879 L 18.89100074768066 36 L 13.21728610992432 26.30069923400879 L 13.14990043640137 26.30069923400879 C 5.887800693511963 26.30069923400879 8.178710686479462e-07 20.41290092468262 8.178710686479462e-07 13.14990043640137 C 8.178710686479462e-07 5.887800216674805 5.887800693511963 0 13.14990043640137 0 L 87.84989929199219 0 C 95.11199951171875 0 100.9998016357422 5.887800216674805 100.9998016357422 13.14990043640137 C 100.9998016357422 20.41290092468262 95.11199951171875 26.30069923400879 87.84989929199219 26.30069923400879 L 86.78263092041016 26.30069923400879 L 81.10890197753906 36 Z" stroke="none" fill="#f76d2f"/>
      </g>
      <g id="Group_125" data-name="Group 125">
        <rect id="Rectangle_763" data-name="Rectangle 763" width="5" height="5" rx="2.5" transform="translate(1001 985)" fill="#f76d2f"/>
        <rect id="Rectangle_763-2" data-name="Rectangle 763" width="5" height="5" rx="2.5" transform="translate(1011 985)" fill="#f76d2f"/>
        <rect id="Rectangle_763-3" data-name="Rectangle 763" width="5" height="5" rx="2.5" transform="translate(1021 985)" fill="#f76d2f"/>
      </g>
    </g>
    <g id="Group_120" data-name="Group 120">
      <g id="Ellipse_38" data-name="Ellipse 38" transform="translate(972 1021)" fill="none" stroke="#f76d2f" stroke-width="3">
        <ellipse cx="10" cy="10.5" rx="10" ry="10.5" stroke="none"/>
        <ellipse cx="10" cy="10.5" rx="8.5" ry="9" fill="none"/>
      </g>
      <g id="Subtraction_5" data-name="Subtraction 5" transform="translate(967 1042)" fill="none">
        <path d="M29,19H0V14.5A14.5,14.5,0,0,1,24.753,4.247,14.405,14.405,0,0,1,29,14.5V19Z" stroke="none"/>
        <path d="M 25.99979972839355 15.99990081787109 L 25.99979972839355 14.49990081787109 C 25.99979972839355 11.42811012268066 24.80361938476562 8.540210723876953 22.6316089630127 6.368190288543701 C 20.4595890045166 4.19618034362793 17.57168960571289 3.000000476837158 14.49989986419678 3.000000476837158 C 11.42811012268066 3.000000476837158 8.540209770202637 4.19618034362793 6.368189811706543 6.368190288543701 C 4.196179866790771 8.540210723876953 2.999999761581421 11.42811012268066 2.999999761581421 14.49990081787109 L 2.999999761581421 15.99990081787109 L 25.99979972839355 15.99990081787109 M 28.99979972839355 18.99990081787109 L 28.99880027770996 18.99990081787109 L -1.358032193365943e-07 18.99990081787109 L -1.358032193365943e-07 14.49990081787109 C -1.358032193365943e-07 10.62677001953125 1.50823986530304 6.985510349273682 4.246870040893555 4.246870517730713 C 6.985509872436523 1.508240461349487 10.62677001953125 4.089355343239731e-07 14.49989986419678 4.089355343239731e-07 C 18.3730297088623 4.089355343239731e-07 22.01428985595703 1.508240461349487 24.7529296875 4.246870517730713 C 27.4915599822998 6.985510349273682 28.99979972839355 10.62677001953125 28.99979972839355 14.49990081787109 L 28.99979972839355 18.99889945983887 L 28.99979972839355 18.99990081787109 Z" stroke="none" fill="#f76d2f"/>
      </g>
      <rect id="Rectangle_764" data-name="Rectangle 764" width="23" height="12" transform="translate(970 1057)" fill="#fff"/>
    </g>
    <g id="Group_122" data-name="Group 122">
      <g id="Ellipse_40" data-name="Ellipse 40" transform="translate(1034 1021)" fill="none" stroke="#f76d2f" stroke-width="3">
        <circle cx="10.5" cy="10.5" r="10.5" stroke="none"/>
        <circle cx="10.5" cy="10.5" r="9" fill="none"/>
      </g>
      <g id="Subtraction_7" data-name="Subtraction 7" transform="translate(1030 1042)" fill="none">
        <path d="M29,19H0V14.5A14.5,14.5,0,0,1,24.753,4.247,14.405,14.405,0,0,1,29,14.5V19Z" stroke="none"/>
        <path d="M 25.99979972839355 15.99990081787109 L 25.99979972839355 14.49990081787109 C 25.99979972839355 11.42811012268066 24.80361938476562 8.540210723876953 22.6316089630127 6.368190288543701 C 20.4595890045166 4.19618034362793 17.57168960571289 3.000000476837158 14.49989986419678 3.000000476837158 C 11.42811012268066 3.000000476837158 8.540209770202637 4.19618034362793 6.368189811706543 6.368190288543701 C 4.196179866790771 8.540210723876953 2.999999761581421 11.42811012268066 2.999999761581421 14.49990081787109 L 2.999999761581421 15.99990081787109 L 25.99979972839355 15.99990081787109 M 28.99979972839355 18.99990081787109 L 28.99880027770996 18.99990081787109 L -1.358032193365943e-07 18.99990081787109 L -1.358032193365943e-07 14.49990081787109 C -1.358032193365943e-07 10.62677001953125 1.50823986530304 6.985510349273682 4.246870040893555 4.246870517730713 C 6.985509872436523 1.508240461349487 10.62677001953125 4.089355343239731e-07 14.49989986419678 4.089355343239731e-07 C 18.3730297088623 4.089355343239731e-07 22.01428985595703 1.508240461349487 24.7529296875 4.246870517730713 C 27.4915599822998 6.985510349273682 28.99979972839355 10.62677001953125 28.99979972839355 14.49990081787109 L 28.99979972839355 18.99889945983887 L 28.99979972839355 18.99990081787109 Z" stroke="none" fill="#f76d2f"/>
      </g>
      <rect id="Rectangle_765" data-name="Rectangle 765" width="23" height="12" transform="translate(1033 1057)" fill="#fff"/>
    </g>
    <g id="Group_121" data-name="Group 121">
      <g id="Ellipse_39" data-name="Ellipse 39" transform="translate(1001 1014)" fill="none" stroke="#f76d2f" stroke-width="3">
        <circle cx="12.5" cy="12.5" r="12.5" stroke="none"/>
        <circle cx="12.5" cy="12.5" r="11" fill="none"/>
      </g>
      <g id="Subtraction_6" data-name="Subtraction 6" transform="translate(996 1039)" fill="none">
        <path d="M34,22H0V17A17,17,0,0,1,29.021,4.979,16.889,16.889,0,0,1,34,17v5Z" stroke="none"/>
        <path d="M 31.00020027160645 18.99960136413574 L 31.00020027160645 17.00010108947754 C 31.00020027160645 13.26058101654053 29.54392051696777 9.744860649108887 26.89963150024414 7.100570678710938 C 24.25534057617188 4.456280708312988 20.73962020874023 3.000000715255737 17.00010108947754 3.000000715255737 C 13.26058101654053 3.000000715255737 9.744860649108887 4.456280708312988 7.100571155548096 7.100570678710938 C 4.456281185150146 9.744860649108887 3.000001192092896 13.26058101654053 3.000001192092896 17.00010108947754 L 3.000001192092896 18.99960136413574 L 31.00020027160645 18.99960136413574 M 34.00020217895508 21.99960136413574 L 1.089477564164554e-06 21.99960136413574 L 1.089477564164554e-06 17.00010108947754 C 1.089477564164554e-06 12.45926094055176 1.768331050872803 8.190170288085938 4.979250907897949 4.979250907897949 C 8.190171241760254 1.768330693244934 12.45926094055176 6.820678777330613e-07 17.00010108947754 6.820678777330613e-07 C 21.54094123840332 6.820678777330613e-07 25.81003189086914 1.768330693244934 29.02095031738281 4.979250907897949 C 32.23187255859375 8.190170288085938 34.00020217895508 12.45926094055176 34.00020217895508 17.00010108947754 L 34.00020217895508 21.99860000610352 L 34.00020217895508 21.99960136413574 Z" stroke="none" fill="#f76d2f"/>
      </g>
      <rect id="Rectangle_766" data-name="Rectangle 766" width="28" height="12" transform="translate(999 1057)" fill="#fff"/>
    </g>
  </g>
</svg>
